<?xml version="1.0" encoding="UTF-8"?>
<svg id="Layer_1" data-name="Layer 1" xmlns="http://www.w3.org/2000/svg" viewBox="0 0 360 360">
  <defs>
    <style>
      .cls-1 {
        fill: #fff;
      }
    </style>
  </defs>
  <path class="cls-1" d="M123.44,54.56c36.54-2.16,74.9,1.41,111.62-.12,41.34,2.74,66.26,27.96,69.87,68.78,3.2,36.15-.92,75.13.67,111.71-1.42,24.79-11.07,47.3-32.91,60.49-22.43,13.55-45.16,10.32-69.99,10.47s-51.32.53-76.84,0c-40.65-.84-69.31-27.21-72.05-68.04v-115.34c2.63-40.17,29.81-65.59,69.63-67.95h0ZM121.28,78.27c-26.03,1.98-42.63,19.84-44.12,45.68l.02,112.8c1.69,29.16,20.62,44.85,49.01,46.18,36.56,1.71,74.69-1.02,111.37-.38,27.38-2.61,44.12-21.01,45.46-48.3,1.75-35.64-1.34-72.7-.02-108.49-1.57-26.49-18.07-45.65-45.08-47.6l-116.63.1h-.01Z"/>
  <path class="cls-1" d="M173.01,115.27c54.66-4.54,91.27,55.52,59.99,101.3-29.55,43.26-96.36,35.07-114.44-14.03-14.46-39.27,12.51-83.79,54.44-87.28h0ZM180.09,138.35c-31.51-.3-52.26,33.42-37.11,61.33,15.47,28.5,56.43,28.96,72.55.85,15.71-27.39-4.1-61.88-35.44-62.18Z"/>
  <path class="cls-1" d="M246.3,98.73c12.31-.55,19.99,13.99,12.27,23.78-5.06,6.42-14.39,7.6-20.8,2.49-10.65-8.49-4.92-25.68,8.53-26.28h0Z"/>
</svg>